# xmcd CD database file
#
# Track frame offsets:
#	150
#	15737
#	30912
#	45737
#	59650
#	74587
#	86575
#	104800
#	122937
#	136475
#	152600
#	170637
#	188575
#	204375
#	219175
#	232700
#	248400
#	267275
#	288925
#	303212
#	314275
#	328512
#
# Disc length: 4581 seconds
#
# Revision: 0
# Processed by: cddbd v1.5.2PL0 Copyright (c) Steve Scherf et al.
# Submitted via: CDex 1.70beta3
#
DISCID=3111e316
DTITLE=Various Artist - Low Down Blues
DYEAR=1900
DGENRE=Jazz
TTITLE0=M.K. Blues - Art Hodes' Back Room Boys
TTITLE1=Low Down Blues - Art Hodes' Back Room Boys
TTITLE2=Jug Head Boogie - Art Hodes' Back Room Boys
TTITLE3=S.C.H. Blues - Art Hodes' Back Room Boys
TTITLE4=Back Room Blues - Art Hodes' Back Room Boys
TTITLE5=Gut Bucket Blues - Art Hodes' Blue Five
TTITLE6=Apex Blues - Art Hodes' Blue Five
TTITLE7=Shake That Thing - Art Hodes' Blue Five
TTITLE8=Indiana - Art Hodes' Blue Five
TTITLE9=Nobody's Sweetheart - Art Hodes' Blue Five
TTITLE10=K.M.H. Drug - Original Art Hodes' Trio
TTITLE11=Funny Feathers - Original Art Hodes' Trio
TTITLE12=Blues 'N Booze - Original Art Hodes' Trio
TTITLE13=That Eccentric Rag - Original Art Hodes' Trio
TTITLE14=None Of My Jerry Roll - Art Hodes' Back Room Boys
TTITLE15=Blues For Jerry - Art Hodes' Back Room Boys
TTITLE16=Beale Street Blues - Art Hodes' Back Room Boys
TTITLE17=Jack Dailey Blues - Art Hodes' Back Room Boys
TTITLE18=Feelin' At Ease - Baby Dodds' Jazz Four
TTITLE19=Careless Love - Baby Dodds' Jazz Four
TTITLE20=High Society - Baby Dodds' Jazz Four
TTITLE21=Winin' Boy Blues - Baby Dodds' Jazz Four
EXTD=
EXTT0=
EXTT1=
EXTT2=
EXTT3=
EXTT4=
EXTT5=
EXTT6=
EXTT7=
EXTT8=
EXTT9=
EXTT10=
EXTT11=
EXTT12=
EXTT13=
EXTT14=
EXTT15=
EXTT16=
EXTT17=
EXTT18=
EXTT19=
EXTT20=
EXTT21=
PLAYORDER=
